{
	"asset":{
		"version":"2.0",
		"generator":"Created using the official Cinema 4D glTF Exporter 1.000x290161"
	},
	"scenes":[{
		"nodes":[0]
	}],
	"nodes":[{
		"name":"Default",
		"mesh":0
	}],
	"meshes":[{
		"primitives":[{
			"attributes":{
				"POSITION":1,
				"NORMAL":2,
				"TEXCOORD_0":3
			},
			"indices":0,
			"material":0
		}]
	}],
	"accessors":[{
		"bufferView":0,
		"type":"SCALAR",
		"componentType":5123,
		"count":72405,
		"byteOffset":0,
		"min":[0],
		"max":[52065]
	},
	{
		"bufferView":1,
		"type":"VEC3",
		"componentType":5126,
		"count":52066,
		"byteOffset":0,
		"min":[-3.6587131023406984,
		-0.7019475698471069,
		-4.746912956237793],
		"max":[4.664536952972412,
		1.3016449213027955,
		6.124269962310791]
	},
	{
		"bufferView":1,
		"type":"VEC3",
		"componentType":5126,
		"count":52066,
		"byteOffset":12,
		"min":[-0.9999688267707825,
		-0.9998750686645508,
		-0.9998750686645508],
		"max":[0.9999688267707825,
		0.9999688267707825,
		0.9998750686645508]
	},
	{
		"bufferView":1,
		"type":"VEC2",
		"componentType":5126,
		"count":52066,
		"byteOffset":24,
		"min":[0.008076000027358532,
		0.008057000115513802],
		"max":[0.9919430017471314,
		0.9913769960403442]
	}],
	"bufferViews":[{
		"buffer":0,
		"byteOffset":0,
		"byteLength":144810,
		"target":34963
	},
	{
		"buffer":0,
		"byteOffset":144812,
		"byteLength":1666112,
		"target":34962,
		"byteStride":32
	}],
	"buffers":[{
		"uri":"data:application/octet-stream;base64,",
		"byteLength":1810924
	}],
	"images":[{
		"uri":"data:image/jpeg;base64,"
	}],
	"samplers":[{
		"magFilter":9729,
		"minFilter":9729,
		"wrapS":10497,
		"wrapT":10497
	}],
	"textures":[{
		"sampler":0,
		"source":0
	}],
	"materials":[{
		"pbrMetallicRoughness":{
			"baseColorTexture":{
				"index":0
			},
			"baseColorFactor":[1.0,
			1.0,
			1.0,
			1.0],
			"metallicFactor":1.0,
			"roughnessFactor":1.0
		},
		"emissiveFactor":[0.0,
		0.0,
		0.0],
		"alphaMode":"BLEND",
		"doubleSided":true,
		"name":"material0000"
	}]
}